<svg width="50" height="50" viewBox="0 0 50 50" fill="none" xmlns="http://www.w3.org/2000/svg">
<g clip-path="url(#clip0_154_2109)">
<path d="M25 0C18.3711 0 12.0078 2.63555 7.32422 7.32227C2.63583 12.0109 0.0013416 18.3695 0 25C0 31.6277 2.63672 37.991 7.32422 42.6777C12.0078 47.3645 18.3711 50 25 50C31.6289 50 37.9922 47.3645 42.6758 42.6777C47.3633 37.991 50 31.6277 50 25C50 18.3723 47.3633 12.009 42.6758 7.32227C37.9922 2.63555 31.6289 0 25 0Z" fill="#3e1e26"/>
<path d="M11.3163 24.7351C18.6053 21.5601 23.4647 19.4669 25.8944 18.4554C32.8397 15.5675 34.2811 15.066 35.2225 15.049C35.4295 15.0457 35.8905 15.0968 36.1912 15.34C36.4412 15.5451 36.5116 15.8224 36.5467 16.0171C36.578 16.2117 36.6209 16.655 36.5858 17.0011C36.2108 20.9542 34.5819 30.5472 33.7538 34.975C33.4061 36.8484 32.7147 37.4765 32.0467 37.5378C30.5936 37.6714 29.492 36.5785 28.0858 35.657C25.8866 34.2144 24.6444 33.3167 22.5077 31.9093C20.0389 30.2828 21.6405 29.3886 23.0467 27.9277C23.4139 27.5453 29.8123 21.7269 29.9334 21.1992C29.9491 21.1332 29.9647 20.8871 29.8163 20.7574C29.6717 20.6273 29.4569 20.6718 29.3006 20.707C29.078 20.757 25.5663 23.0804 18.7538 27.6769C17.7577 28.3621 16.8553 28.696 16.0428 28.6785C15.1522 28.6593 13.4334 28.1738 12.1561 27.7589C10.5936 27.25 9.34751 26.9808 9.45688 26.1164C9.51157 25.6664 10.1327 25.2058 11.3163 24.7351Z" fill="white"/>
</g>
<defs>
<clipPath id="clip0_154_2109">
<rect width="50" height="50" fill="white"/>
</clipPath>
</defs>
</svg>
