<svg width="50" height="50" viewBox="0 0 50 50" fill="none" xmlns="http://www.w3.org/2000/svg">
<g clip-path="url(#clip0_154_2112)">
<path d="M1.06627 24.647C1.0651 28.8384 2.1652 32.931 4.25703 36.5383L0.866211 48.8633L13.5361 45.5561C17.0404 47.4552 20.9667 48.4504 24.9566 48.4507H24.9671C38.1386 48.4507 48.8606 37.7806 48.8662 24.6658C48.8687 18.3107 46.385 12.3348 41.8723 7.83884C37.3604 3.34328 31.3597 0.866182 24.9661 0.863281C11.7931 0.863281 1.0719 11.5327 1.06646 24.647" fill="#3e1e26"/>
<path d="M0.208984 24.693C0.207617 29.0451 1.35352 33.2938 3.53203 37.0387L0 49.8346L13.1975 46.4011C16.8338 48.3684 20.9279 49.4056 25.0939 49.4071H25.1047C38.825 49.4071 49.9941 38.3281 50 24.7128C50.0023 18.1143 47.4148 11.9095 42.7148 7.24185C38.0143 2.5748 31.7643 0.00271318 25.1047 0C11.382 0 0.214453 11.0775 0.208984 24.693ZM8.06855 36.3938L7.57578 35.6176C5.5043 32.3494 4.41094 28.5726 4.4125 24.6945C4.4168 13.3777 13.6988 4.17054 25.1125 4.17054C30.6398 4.17286 35.8344 6.31085 39.7414 10.1899C43.6482 14.0694 45.798 19.2263 45.7967 24.7112C45.7916 36.0281 36.5094 45.2364 25.1047 45.2364H25.0965C21.383 45.2344 17.741 44.2449 14.5648 42.3749L13.809 41.9302L5.97734 43.9676L8.06855 36.3938Z" fill="#3e1e26"/>
<path d="M18.8828 14.3699C18.4168 13.3422 17.9264 13.3214 17.4832 13.3034C17.1203 13.2879 16.7055 13.2891 16.291 13.2891C15.8762 13.2891 15.2022 13.4439 14.6324 14.0612C14.0621 14.679 12.4551 16.172 12.4551 19.2087C12.4551 22.2453 14.6842 25.1802 14.9949 25.5924C15.3061 26.0038 19.2982 32.4348 25.6209 34.9088C30.8756 36.9648 31.9449 36.5559 33.0854 36.4528C34.226 36.3501 36.7658 34.9602 37.284 33.5189C37.8026 32.0778 37.8026 30.8426 37.6471 30.5844C37.4916 30.3272 37.0768 30.1728 36.4547 29.8643C35.8326 29.5557 32.7742 28.0623 32.2041 27.8563C31.6338 27.6505 31.2192 27.5478 30.8043 28.1658C30.3895 28.7829 29.1983 30.1728 28.8352 30.5844C28.4725 30.997 28.1094 31.0484 27.4875 30.7397C26.8651 30.43 24.8617 29.779 22.485 27.6765C20.6358 26.0404 19.3873 24.0201 19.0244 23.4021C18.6615 22.785 18.9856 22.4505 19.2975 22.143C19.577 21.8664 19.9197 21.4222 20.2311 21.0619C20.5412 20.7015 20.6447 20.4443 20.8522 20.0327C21.0598 19.6207 20.9559 19.2602 20.8006 18.9515C20.6447 18.6428 19.4359 15.5902 18.8828 14.3699Z" fill="white"/>
</g>
<defs>
<linearGradient id="paint0_linear_154_2112" x1="2500" y1="4983.46" x2="2500" y2="0" gradientUnits="userSpaceOnUse">
<stop stop-color="#F9F9F9"/>
<stop offset="1" stop-color="white"/>
</linearGradient>
<clipPath id="clip0_154_2112">
<rect width="50" height="50" fill="white"/>
</clipPath>
</defs>
</svg>
