<svg width="27" height="24" viewBox="0 0 27 24" fill="none" xmlns="http://www.w3.org/2000/svg">
<path d="M3.2915 12.0006V0.333984M23.7082 23.6673V19.2923M3.2915 23.6673V17.834M23.7082 13.459V0.333984M13.4998 4.70898V0.333984M13.4998 23.6673V10.5423" stroke="white" stroke-width="2" stroke-linecap="round"/>
<path d="M3.29167 17.8333C4.9025 17.8333 6.20833 16.5275 6.20833 14.9167C6.20833 13.3058 4.9025 12 3.29167 12C1.68084 12 0.375 13.3058 0.375 14.9167C0.375 16.5275 1.68084 17.8333 3.29167 17.8333Z" stroke="white" stroke-width="2" stroke-linecap="round"/>
<path d="M13.5002 10.5423C15.111 10.5423 16.4168 9.23648 16.4168 7.62565C16.4168 6.01482 15.111 4.70898 13.5002 4.70898C11.8893 4.70898 10.5835 6.01482 10.5835 7.62565C10.5835 9.23648 11.8893 10.5423 13.5002 10.5423Z" stroke="white" stroke-width="2" stroke-linecap="round"/>
<path d="M23.7082 19.2923C25.319 19.2923 26.6248 17.9865 26.6248 16.3757C26.6248 14.7648 25.319 13.459 23.7082 13.459C22.0973 13.459 20.7915 14.7648 20.7915 16.3757C20.7915 17.9865 22.0973 19.2923 23.7082 19.2923Z" stroke="white" stroke-width="2" stroke-linecap="round"/>
</svg>
